<svg width="174" height="179" viewBox="0 0 174 179" fill="none" xmlns="http://www.w3.org/2000/svg">
<path d="M68.0025 20.3589L36.0025 38.7118C35.6917 38.8901 35.5 39.221 35.5 39.5793V116.513C35.5 117.284 36.3356 117.765 37.0023 117.377L69.0023 98.7891C69.3104 98.6101 69.5 98.2807 69.5 97.9244V21.2263C69.5 20.4578 68.6692 19.9765 68.0025 20.3589Z" fill="white" stroke="black" stroke-width="2"/>
<path d="M34.9975 39.2118L2.99751 20.8589C2.33085 20.4765 1.5 20.9578 1.5 21.7263V137.424C1.5 137.78 1.68993 138.11 1.99847 138.289L68.9765 177.117C69.648 177.506 70.4877 177.015 70.478 176.239L70.0072 138.575C70.0027 138.219 69.8093 137.892 69.4993 137.717L36.0079 118.787C35.6941 118.61 35.5 118.277 35.5 117.917V40.0793C35.5 39.721 35.3083 39.3901 34.9975 39.2118Z" fill="white" stroke="black" stroke-width="2"/>
<path d="M68.4691 20.1125L36.0015 1.29074C35.6914 1.11093 35.3086 1.11093 34.9985 1.29074L2.53088 20.1125C1.85779 20.5027 1.8685 21.4783 2.55 21.8536L35.0176 39.7343C35.3179 39.8997 35.6821 39.8997 35.9824 39.7343L68.45 21.8536C69.1315 21.4783 69.1422 20.5027 68.4691 20.1125Z" fill="white" stroke="black" stroke-width="2"/>
<path d="M104.004 78.289L36.5268 117.61C35.855 118.002 35.8674 118.976 36.5488 119.351L70.0003 137.726C70.3101 137.896 70.6866 137.89 70.9907 137.71L137.511 98.3803C138.173 97.9888 138.164 97.0274 137.494 96.6489L105 78.2824C104.69 78.1075 104.311 78.11 104.004 78.289Z" fill="white" stroke="black" stroke-width="2"/>
<path d="M136.998 98.3705L69.9985 137.211C69.6899 137.39 69.5 137.72 69.5 138.076V176.254C69.5 177.027 70.3396 177.507 71.0062 177.116L138.006 137.79C138.312 137.61 138.5 137.282 138.5 136.927V99.2356C138.5 98.465 137.665 97.984 136.998 98.3705Z" fill="white" stroke="black" stroke-width="2"/>
<path d="M171.996 77.7879L138.996 96.6451C138.329 97.026 137.5 96.5446 137.5 95.7768V58.0803C137.5 57.7215 137.692 57.3901 138.004 57.2121L171.004 38.3549C171.671 37.974 172.5 38.4554 172.5 39.2232V76.9197C172.5 77.2785 172.308 77.6099 171.996 77.7879Z" fill="white" stroke="black" stroke-width="2"/>
<path d="M171.416 39.3597L138.465 57.2478C138.174 57.4056 137.824 57.4094 137.53 57.258L105.629 40.8387C104.926 40.4765 104.902 39.4793 105.587 39.0836L139.004 19.7862C139.311 19.6089 139.689 19.6074 139.998 19.7823L171.433 37.611C172.115 37.9983 172.106 38.9852 171.416 39.3597Z" fill="white" stroke="black" stroke-width="2"/>
<path d="M138 58.0825V95.2832C138 96.0496 137.173 96.5311 136.507 96.153L105.007 78.2874C104.694 78.1098 104.5 77.7775 104.5 77.4175V40.2168C104.5 39.4504 105.327 38.9689 105.993 39.347L137.493 57.2126C137.806 57.3902 138 57.7225 138 58.0825Z" fill="white" stroke="black" stroke-width="2"/>
</svg>
