<svg width="166" height="166" viewBox="0 0 166 166" fill="none" xmlns="http://www.w3.org/2000/svg">
<circle cx="83" cy="83" r="82" stroke="black" stroke-width="2"/>
<path d="M38.5 64.5C27.5 66.875 23.0001 55.4998 32.5001 50.9999C43.179 45.9415 69.173 44.1393 92.0001 47C109.787 49.2292 128.562 56.033 137 60.5C145.5 64.9999 143 80.8201 127 72.5C115.721 66.6347 94 57.5 52.5002 61.7934C48.4491 62.2125 42.7969 63.5723 38.5 64.5Z" stroke="black" stroke-width="2"/>
<path d="M42.514 89.9189C33.1406 91.9135 29.3374 82.2152 37.4388 78.4073C46.5455 74.1267 68.6859 72.6579 88.1176 75.1519C103.259 77.0952 119.23 82.9368 126.404 86.7621C133.631 90.6156 131.462 104.081 117.858 96.9557C108.268 91.9324 89.7941 84.0985 54.443 87.6494C50.9922 87.9961 46.1754 89.1397 42.514 89.9189Z" stroke="black" stroke-width="2"/>
<path d="M45.1365 113.697C37.1565 115.395 33.9187 107.139 40.8158 103.897C48.5688 100.253 67.418 99.0023 83.9612 101.126C96.8518 102.78 110.449 107.753 116.557 111.01C122.709 114.291 120.863 125.755 109.281 119.688C101.116 115.412 85.3884 108.742 55.2923 111.765C52.3544 112.06 48.2537 113.034 45.1365 113.697Z" stroke="black" stroke-width="2"/>
</svg>
