<svg width="652" height="456" viewBox="0 0 652 456" fill="none" xmlns="http://www.w3.org/2000/svg">
<path d="M362.554 39.4999L18.5544 1C18.5544 1 -0.134549 1.04138 1.05442 18.0001C8.9214 130.21 20.5542 266 25.5542 332.5C27.2835 355.5 40.5542 355.5 40.5542 355.5L392.554 301C392.554 301 402.758 299.189 401.054 283C393.286 209.197 379.054 99.9999 373.554 55.9999C373.554 41.9999 362.554 39.4999 362.554 39.4999Z" fill="white" stroke="black" stroke-width="2"/>
<path d="M355.652 55.6529L26.7971 25.4357C24.3219 25.2083 22.2408 27.2695 22.4445 29.7467L46.3786 320.805C46.5663 323.086 48.6269 324.745 50.8959 324.441L382.137 280.1C384.308 279.809 385.842 277.827 385.577 275.653L359.257 59.1534C359.03 57.2832 357.528 55.8252 355.652 55.6529Z" fill="white" stroke="black" stroke-width="2"/>
<path d="M42.6069 361.89C34.1213 357.76 36.0542 356 36.0542 344L650.054 331V344.95C650.054 347.568 639.073 350.929 639.073 350.929C639.073 350.929 344.054 431.5 268.554 452C253.689 456.036 242.593 453.27 240.554 452.5C222.086 445.525 76.5478 378.41 42.6069 361.89Z" fill="white" stroke="black" stroke-width="2"/>
<path d="M228.055 427C228.055 427 122.554 381.5 51.5544 351C41.9948 346.893 20.1879 343.052 55.5542 338C150.054 324.5 389.555 290 389.555 290C389.555 290 405.055 288.763 413.055 290C461.555 297.5 619.555 324 638.055 327C658.555 330.324 649.112 332.716 638.055 335.5C497.055 371 396.055 398 277.055 427C248.555 433.945 228.055 427 228.055 427Z" fill="white" stroke="black" stroke-width="2"/>
<path d="M441.854 334.54L335.254 355.667C334.217 355.873 334.167 357.339 335.189 357.614L414.306 378.933C414.469 378.977 414.64 378.979 414.804 378.939L520.785 353.043C521.818 352.791 521.795 351.313 520.754 351.093L442.254 334.542C442.122 334.514 441.986 334.513 441.854 334.54Z" stroke="black" stroke-width="2"/>
<path d="M404.898 300.524L390.656 302.713C389.651 302.867 389.491 304.249 390.434 304.629L396.067 306.899C396.231 306.965 396.41 306.987 396.584 306.961L415.623 304.199C416.755 304.035 416.769 302.406 415.64 302.223L405.21 300.525C405.107 300.508 405.001 300.508 404.898 300.524Z" fill="white" stroke="black" stroke-width="1.5"/>
<path d="M386.584 304.029L373.844 305.595C372.861 305.716 372.633 307.039 373.519 307.482L378.268 309.857C378.454 309.95 378.665 309.983 378.87 309.951L392.143 307.877C393.169 307.717 393.301 306.293 392.322 305.947L387.039 304.078C386.893 304.027 386.737 304.01 386.584 304.029Z" fill="white" stroke="black" stroke-width="1.5"/>
<path d="M368.587 307.027L355.619 308.529C354.58 308.649 354.4 310.084 355.378 310.457L361.799 312.903C361.966 312.966 362.147 312.984 362.323 312.954L374.266 310.914C375.282 310.74 375.403 309.329 374.431 308.985L369.036 307.077C368.892 307.026 368.739 307.009 368.587 307.027Z" fill="white" stroke="black" stroke-width="1.5"/>
<path d="M350.892 310.023L337.117 311.508C336.049 311.623 335.889 313.111 336.907 313.451L344.319 315.921C344.473 315.973 344.638 315.986 344.799 315.959L357.036 313.932C358.067 313.761 358.178 312.322 357.184 311.996L351.312 310.067C351.177 310.023 351.034 310.008 350.892 310.023Z" fill="white" stroke="black" stroke-width="1.5"/>
<path d="M331.933 313.019L318.424 314.475C317.341 314.592 317.198 316.109 318.24 316.426L324.858 318.44C324.988 318.48 325.123 318.492 325.258 318.478L339.879 316.885C340.993 316.764 341.095 315.183 340.007 314.919L332.276 313.041C332.164 313.014 332.048 313.006 331.933 313.019Z" fill="white" stroke="black" stroke-width="1.5"/>
<path d="M315.009 316.021L300.183 317.91C299.114 318.046 298.987 319.545 300.019 319.859L306.828 321.931C306.977 321.976 307.134 321.986 307.287 321.96L322.262 319.403C323.355 319.217 323.378 317.657 322.292 317.437L315.334 316.032C315.227 316.011 315.118 316.007 315.009 316.021Z" fill="white" stroke="black" stroke-width="1.5"/>
<path d="M296.858 319.045L282.176 321.702C281.214 321.876 281.048 323.185 281.936 323.594L286.87 325.867C287.058 325.953 287.269 325.979 287.473 325.941L303.227 322.985C304.244 322.794 304.338 321.374 303.355 321.052L297.348 319.079C297.19 319.027 297.021 319.015 296.858 319.045Z" fill="white" stroke="black" stroke-width="1.5"/>
<path d="M277.118 322.033L259.733 324.702C258.723 324.857 258.569 326.249 259.521 326.621L265.354 328.901C265.519 328.966 265.699 328.985 265.875 328.957L284.528 325.987C285.588 325.818 285.674 324.325 284.639 324.036L277.538 322.058C277.401 322.02 277.258 322.011 277.118 322.033Z" fill="white" stroke="black" stroke-width="1.5"/>
<path d="M255.815 325.037L239.511 327.702C238.518 327.864 238.359 329.225 239.288 329.612L244.761 331.889C244.935 331.961 245.127 331.983 245.313 331.952L262.807 328.986C263.852 328.809 263.94 327.343 262.925 327.042L256.261 325.065C256.116 325.022 255.964 325.013 255.815 325.037Z" fill="white" stroke="black" stroke-width="1.5"/>
<path d="M234.356 328.028L214.008 330.935C212.978 331.082 212.83 332.509 213.808 332.865L220.816 335.413C220.972 335.47 221.14 335.487 221.305 335.463L243.184 332.221C244.262 332.062 244.343 330.538 243.288 330.264L234.748 328.05C234.62 328.017 234.487 328.01 234.356 328.028Z" fill="white" stroke="black" stroke-width="1.5"/>
<path d="M211.356 332.028L191.008 334.935C189.978 335.082 189.83 336.509 190.808 336.865L197.816 339.413C197.972 339.47 198.14 339.487 198.305 339.463L220.184 336.221C221.262 336.062 221.343 334.538 220.288 334.264L211.748 332.05C211.62 332.017 211.487 332.01 211.356 332.028Z" fill="white" stroke="black" stroke-width="1.5"/>
<path d="M186.356 336.028L166.008 338.935C164.978 339.082 164.83 340.509 165.808 340.865L172.816 343.413C172.972 343.47 173.14 343.487 173.305 343.463L195.184 340.221C196.262 340.062 196.343 338.538 195.288 338.264L186.748 336.05C186.62 336.017 186.487 336.01 186.356 336.028Z" fill="white" stroke="black" stroke-width="1.5"/>
<path d="M162.356 340.028L142.008 342.935C140.978 343.082 140.83 344.509 141.808 344.865L148.816 347.413C148.972 347.47 149.14 347.487 149.305 347.463L171.184 344.221C172.262 344.062 172.343 342.538 171.288 342.264L162.748 340.05C162.62 340.017 162.487 340.01 162.356 340.028Z" fill="white" stroke="black" stroke-width="1.5"/>
<path d="M138.356 344.028L118.008 346.935C116.978 347.082 116.83 348.509 117.808 348.865L124.816 351.413C124.972 351.47 125.14 351.487 125.305 351.463L147.184 348.221C148.262 348.062 148.343 346.538 147.288 346.264L138.748 344.05C138.62 344.017 138.487 344.01 138.356 344.028Z" fill="white" stroke="black" stroke-width="1.5"/>
<path d="M391.46 310.508L380.378 311.512C379.2 311.619 379.151 313.323 380.321 313.497L386.932 314.482C387.013 314.494 387.096 314.496 387.178 314.488L399.472 313.267C400.675 313.148 400.674 311.395 399.471 311.277L391.648 310.509C391.586 310.503 391.523 310.503 391.46 310.508Z" fill="white" stroke="black" stroke-width="1.5"/>
<path d="M406.471 308.008L398.604 308.745C397.43 308.855 397.38 310.55 398.545 310.729L403.436 311.482C403.515 311.494 403.594 311.496 403.673 311.49L414.463 310.571C415.691 310.467 415.68 308.668 414.451 308.578L406.637 308.006C406.582 308.002 406.526 308.002 406.471 308.008Z" fill="white" stroke="black" stroke-width="1.5"/>
<path d="M422.426 304.018L412.105 305.493C410.958 305.656 410.962 307.315 412.11 307.473L419.446 308.485C419.518 308.495 419.591 308.497 419.664 308.491L433.979 307.322C435.183 307.224 435.213 305.472 434.013 305.332L422.683 304.015C422.597 304.005 422.511 304.006 422.426 304.018Z" fill="white" stroke="black" stroke-width="1.5"/>
<path d="M376.916 313.014L363.257 314.421C362.082 314.542 362.051 316.243 363.221 316.407L370.927 317.482C371.011 317.494 371.097 317.495 371.182 317.485L383.244 316.067C384.389 315.932 384.435 314.287 383.299 314.089L377.191 313.024C377.1 313.008 377.008 313.005 376.916 313.014Z" fill="white" stroke="black" stroke-width="1.5"/>
<path d="M359.89 315.52L344.727 317.427C343.586 317.571 343.549 319.211 344.682 319.405L350.921 320.477C351.009 320.492 351.1 320.495 351.189 320.487L366.994 318.918C368.135 318.804 368.219 317.173 367.096 316.943L360.216 315.533C360.109 315.511 359.999 315.507 359.89 315.52Z" fill="white" stroke="black" stroke-width="1.5"/>
<path d="M339.892 318.035L325.834 320.325C324.723 320.506 324.711 322.099 325.819 322.296L332.41 323.474C332.506 323.491 332.603 323.494 332.7 323.483L346.901 321.857C347.995 321.731 348.113 320.189 347.051 319.899L340.317 318.057C340.178 318.019 340.034 318.012 339.892 318.035Z" fill="white" stroke="black" stroke-width="1.5"/>
<path d="M320.978 321.029L305.379 323.386C304.266 323.555 304.237 325.149 305.343 325.358L313.896 326.97C314.001 326.99 314.108 326.993 314.214 326.979L329.286 324.969C330.383 324.823 330.466 323.268 329.391 323.006L321.364 321.047C321.238 321.016 321.106 321.01 320.978 321.029Z" fill="white" stroke="black" stroke-width="1.5"/>
<path d="M300.35 324.525L284.461 326.462C283.403 326.592 283.254 328.067 284.266 328.404L291.829 330.925C291.977 330.974 292.135 330.988 292.29 330.965L308.013 328.664C309.076 328.509 309.18 327.016 308.149 326.715L300.751 324.557C300.621 324.519 300.485 324.508 300.35 324.525Z" fill="white" stroke="black" stroke-width="1.5"/>
<path d="M281.118 328.033L263.733 330.702C262.723 330.857 262.569 332.249 263.521 332.621L269.354 334.901C269.519 334.966 269.699 334.985 269.875 334.957L288.528 331.987C289.588 331.818 289.674 330.325 288.639 330.036L281.538 328.058C281.401 328.02 281.258 328.011 281.118 328.033Z" fill="white" stroke="black" stroke-width="1.5"/>
<path d="M259.377 332.017L243.735 333.543C242.661 333.648 242.492 335.146 243.516 335.487L250.836 337.927C250.98 337.975 251.132 337.99 251.282 337.97L266.967 335.929C268.057 335.787 268.154 334.247 267.091 333.97L259.727 332.045C259.613 332.015 259.494 332.006 259.377 332.017Z" fill="white" stroke="black" stroke-width="1.5"/>
<path d="M239.356 335.028L219.008 337.935C217.978 338.082 217.83 339.509 218.808 339.865L225.816 342.413C225.972 342.47 226.14 342.487 226.305 342.463L248.184 339.221C249.262 339.062 249.343 337.538 248.288 337.264L239.748 335.05C239.62 335.017 239.487 335.01 239.356 335.028Z" fill="white" stroke="black" stroke-width="1.5"/>
<path d="M215.356 339.028L195.008 341.935C193.978 342.082 193.83 343.509 194.808 343.865L201.816 346.413C201.972 346.47 202.14 346.487 202.305 346.463L224.184 343.221C225.262 343.062 225.343 341.538 224.288 341.264L215.748 339.05C215.62 339.017 215.487 339.01 215.356 339.028Z" fill="white" stroke="black" stroke-width="1.5"/>
<path d="M190.356 343.028L170.008 345.935C168.978 346.082 168.83 347.509 169.808 347.865L176.816 350.413C176.972 350.47 177.14 350.487 177.305 350.463L199.184 347.221C200.262 347.062 200.343 345.538 199.288 345.264L190.748 343.05C190.62 343.017 190.487 343.01 190.356 343.028Z" fill="white" stroke="black" stroke-width="1.5"/>
<path d="M164.368 347.026L130.008 351.935C128.978 352.082 128.83 353.509 129.808 353.865L136.82 356.415C136.974 356.471 137.139 356.488 137.301 356.465L174.255 351.248C175.352 351.093 175.421 349.536 174.343 349.284L164.737 347.043C164.616 347.014 164.491 347.009 164.368 347.026Z" fill="white" stroke="black" stroke-width="1.5"/>
<path d="M440.453 307.512L417.671 310.215C416.531 310.35 416.48 311.986 417.61 312.192L427.404 313.973C427.504 313.991 427.605 313.994 427.705 313.981L454.526 310.675C455.718 310.528 455.685 308.788 454.488 308.686L440.656 307.509C440.588 307.503 440.52 307.504 440.453 307.512Z" fill="white" stroke="black" stroke-width="1.5"/>
<path d="M414.431 312.511L400.456 313.811C399.295 313.919 399.227 315.589 400.375 315.792L409.883 317.47C409.996 317.49 410.112 317.49 410.226 317.47L421.493 315.539C422.611 315.347 422.597 313.737 421.477 313.565L414.676 312.519C414.595 312.506 414.513 312.504 414.431 312.511Z" fill="white" stroke="black" stroke-width="1.5"/>
<path d="M396.435 315.512L383.329 316.79C382.171 316.903 382.107 318.568 383.253 318.77L392.927 320.477C393.012 320.492 393.097 320.496 393.183 320.489L408.666 319.225C409.855 319.128 409.907 317.407 408.726 317.239L396.673 315.517C396.594 315.506 396.514 315.504 396.435 315.512Z" fill="white" stroke="black" stroke-width="1.5"/>
<path d="M379.028 319.006L367.088 319.972C365.947 320.064 365.831 321.691 366.949 321.944L375.868 323.958C375.991 323.986 376.118 323.99 376.242 323.971L390.048 321.823C391.222 321.641 391.155 319.929 389.971 319.838L379.186 319.006C379.133 319.002 379.081 319.002 379.028 319.006Z" fill="white" stroke="black" stroke-width="1.5"/>
<path d="M361.415 321.518L347.978 323.288C346.821 323.441 346.818 325.114 347.974 325.271L356.939 326.484C357.016 326.495 357.093 326.496 357.17 326.489L371.978 325.051C373.152 324.937 373.195 323.241 372.029 323.066L361.693 321.521C361.601 321.507 361.507 321.506 361.415 321.518Z" fill="white" stroke="black" stroke-width="1.5"/>
<path d="M342.413 324.518L328.033 326.326C326.874 326.472 326.863 328.147 328.02 328.309L336.438 329.484C336.515 329.494 336.593 329.496 336.671 329.489L352.181 328.015C353.351 327.904 353.403 326.215 352.242 326.032L342.694 324.522C342.601 324.507 342.507 324.506 342.413 324.518Z" fill="white" stroke="black" stroke-width="1.5"/>
<path d="M323.427 328.019L307.518 330.436C306.417 330.604 306.373 332.174 307.462 332.404L314.88 333.963C314.995 333.988 315.114 333.991 315.23 333.974L334.657 331.149C335.821 330.979 335.788 329.288 334.618 329.164L323.682 328.013C323.597 328.004 323.511 328.006 323.427 328.019Z" fill="white" stroke="black" stroke-width="1.5"/>
<path d="M304.118 331.033L286.733 333.702C285.723 333.857 285.569 335.249 286.521 335.621L292.354 337.901C292.519 337.966 292.699 337.985 292.875 337.957L311.528 334.987C312.588 334.818 312.674 333.325 311.639 333.036L304.538 331.058C304.401 331.02 304.258 331.011 304.118 331.033Z" fill="white" stroke="black" stroke-width="1.5"/>
<path d="M281.815 335.037L265.511 337.702C264.518 337.864 264.359 339.225 265.288 339.612L270.761 341.889C270.935 341.961 271.127 341.983 271.313 341.952L288.807 338.986C289.852 338.809 289.94 337.343 288.925 337.042L282.261 335.065C282.116 335.022 281.964 335.013 281.815 335.037Z" fill="white" stroke="black" stroke-width="1.5"/>
<path d="M260.785 338.538L244.008 340.935C242.978 341.082 242.83 342.509 243.808 342.865L250.831 345.419C250.978 345.472 251.135 345.49 251.291 345.472L268.22 343.456C269.245 343.334 269.435 341.929 268.48 341.538L261.305 338.603C261.141 338.535 260.961 338.513 260.785 338.538Z" fill="white" stroke="black" stroke-width="1.5"/>
<path d="M239.304 342.036L219.008 344.935C217.978 345.082 217.83 346.509 218.808 346.865L225.804 349.409C225.968 349.468 226.145 349.484 226.317 349.454L245.389 346.137C246.396 345.962 246.523 344.567 245.563 344.214L239.791 342.087C239.636 342.03 239.468 342.012 239.304 342.036Z" fill="white" stroke="black" stroke-width="1.5"/>
<path d="M214.356 346.028L194.008 348.935C192.978 349.082 192.83 350.509 193.808 350.865L200.816 353.413C200.972 353.47 201.14 353.487 201.305 353.463L223.184 350.221C224.262 350.062 224.343 348.538 223.288 348.264L214.748 346.05C214.62 346.017 214.487 346.01 214.356 346.028Z" fill="white" stroke="black" stroke-width="1.5"/>
<path d="M187.871 350.528L145.928 356.91C144.904 357.066 144.763 358.485 145.736 358.839L152.817 361.414C152.973 361.47 153.14 361.487 153.304 361.463L198.638 354.796C199.738 354.635 199.793 353.068 198.707 352.83L188.235 350.539C188.116 350.513 187.992 350.509 187.871 350.528Z" fill="white" stroke="black" stroke-width="1.5"/>
<path d="M459.431 311.02L430.286 315.666C429.195 315.84 429.151 317.394 430.23 317.63L440.889 319.958C441.016 319.986 441.146 319.989 441.273 319.967L474.073 314.294C475.225 314.095 475.158 312.418 473.993 312.313L459.679 311.011C459.596 311.004 459.513 311.006 459.431 311.02Z" fill="white" stroke="black" stroke-width="1.5"/>
<path d="M422.93 317.017L411.018 318.672C409.898 318.827 409.856 320.429 410.965 320.644L420.4 322.47C420.502 322.49 420.607 322.494 420.71 322.481L436.962 320.531C438.141 320.389 438.134 318.675 436.953 318.544L423.178 317.014C423.096 317.005 423.013 317.006 422.93 317.017Z" fill="white" stroke="black" stroke-width="1.5"/>
<path d="M406.434 320.015L393.814 321.561C392.699 321.697 392.622 323.285 393.718 323.529L402.377 325.46C402.494 325.486 402.615 325.491 402.734 325.475L417.932 323.338C419.092 323.175 419.075 321.494 417.912 321.355L406.674 320.014C406.595 320.005 406.514 320.005 406.434 320.015Z" fill="white" stroke="black" stroke-width="1.5"/>
<path d="M390.851 323.035L375.574 325.643C374.493 325.827 374.455 327.367 375.526 327.605L383.878 329.461C383.994 329.487 384.115 329.491 384.233 329.475L400.341 327.227C401.434 327.075 401.511 325.524 400.437 325.265L391.254 323.048C391.122 323.016 390.985 323.012 390.851 323.035Z" fill="white" stroke="black" stroke-width="1.5"/>
<path d="M369.429 327.014L354.411 328.721C353.264 328.851 353.213 330.499 354.35 330.699L364.403 332.473C364.503 332.491 364.605 332.493 364.706 332.48L380.19 330.46C381.346 330.31 381.353 328.639 380.199 328.478L369.679 327.017C369.596 327.006 369.512 327.005 369.429 327.014Z" fill="white" stroke="black" stroke-width="1.5"/>
<path d="M350.876 330.523L335.416 332.512C334.299 332.656 334.235 334.251 335.338 334.483L342.386 335.965C342.497 335.988 342.612 335.992 342.724 335.977L357.594 333.995C358.697 333.847 358.771 332.279 357.686 332.029L351.229 330.54C351.113 330.514 350.994 330.508 350.876 330.523Z" fill="white" stroke="black" stroke-width="1.5"/>
<path d="M330.874 334.026L315.363 336.241C314.267 336.398 314.2 337.957 315.28 338.206L322.874 339.958C322.993 339.986 323.116 339.991 323.237 339.974L339.07 337.765C340.173 337.611 340.236 336.04 339.148 335.799L331.232 334.039C331.114 334.013 330.993 334.009 330.874 334.026Z" fill="white" stroke="black" stroke-width="1.5"/>
<path d="M309.407 337.519L292.741 339.663C291.669 339.801 291.548 341.306 292.584 341.614L300.395 343.937C300.535 343.978 300.681 343.989 300.825 343.968L319.759 341.19C320.887 341.025 320.904 339.403 319.779 339.214L309.7 337.524C309.603 337.508 309.505 337.506 309.407 337.519Z" fill="white" stroke="black" stroke-width="1.5"/>
<path d="M288.893 341.519L271.087 343.661C269.999 343.792 269.884 345.326 270.94 345.618L279.343 347.942C279.482 347.98 279.628 347.988 279.77 347.965L297.176 345.139C298.273 344.961 298.305 343.396 297.217 343.173L289.213 341.532C289.108 341.511 289 341.506 288.893 341.519Z" fill="white" stroke="black" stroke-width="1.5"/>
<path d="M264.906 345.519L246.382 347.884C245.304 348.021 245.189 349.538 246.234 349.837L255.347 352.441C255.483 352.48 255.627 352.489 255.768 352.468L276.363 349.417C277.488 349.25 277.506 347.634 276.385 347.442L265.202 345.525C265.104 345.508 265.004 345.506 264.906 345.519Z" fill="white" stroke="black" stroke-width="1.5"/>
<path d="M242.864 349.033L221.907 352.66C220.834 352.846 220.789 354.371 221.851 354.619L231.861 356.955C231.989 356.985 232.121 356.989 232.25 356.968L254.298 353.36C255.39 353.181 255.427 351.624 254.345 351.395L243.243 349.04C243.118 349.013 242.99 349.011 242.864 349.033Z" fill="white" stroke="black" stroke-width="1.5"/>
<path d="M213.886 354.029L194.858 357.338C193.841 357.515 193.726 358.929 194.7 359.268L202.312 361.916C202.471 361.971 202.641 361.985 202.807 361.957L226.188 357.994C227.3 357.806 227.298 356.207 226.186 356.022L214.222 354.028C214.111 354.009 213.997 354.01 213.886 354.029Z" fill="white" stroke="black" stroke-width="1.5"/>
<path d="M191.325 358.533L158.858 363.295C157.783 363.453 157.696 364.971 158.746 365.251L168.85 367.945C168.985 367.981 169.125 367.989 169.263 367.967L199.887 363.155C200.929 362.991 201.041 361.536 200.037 361.214L191.775 358.57C191.63 358.524 191.476 358.511 191.325 358.533Z" fill="white" stroke="black" stroke-width="1.5"/>
<path d="M486.462 315.512L475.584 316.943C474.415 317.097 474.429 318.793 475.6 318.928L480.436 319.486C480.515 319.495 480.594 319.495 480.672 319.485L493.794 317.879C495.006 317.73 494.946 315.953 493.726 315.888L486.647 315.505C486.585 315.502 486.523 315.504 486.462 315.512Z" fill="white" stroke="black" stroke-width="1.5"/>
<path d="M472.554 318.5L461.184 320.036C460.034 320.192 460.027 321.853 461.176 322.017L464.403 322.478C464.503 322.493 464.605 322.492 464.705 322.475L476.884 320.487C478.098 320.289 477.953 318.5 476.723 318.5H472.554Z" fill="white" stroke="black" stroke-width="1.5"/>
<path d="M460.48 317.011L450.772 318.482C449.633 318.655 449.64 320.298 450.78 320.461L454.411 320.979C454.506 320.993 454.602 320.993 454.697 320.979L468.376 318.989C469.603 318.811 469.472 317 468.232 317H460.63C460.579 317 460.529 317.004 460.48 317.011Z" fill="white" stroke="black" stroke-width="1.5"/>
<path d="M455.863 321.042L445.254 323.352C444.22 323.577 444.199 325.045 445.227 325.3L447.86 325.952C447.988 325.984 448.121 325.99 448.252 325.969L461.523 323.928C462.642 323.756 462.658 322.148 461.542 321.954L456.247 321.033C456.12 321.011 455.989 321.014 455.863 321.042Z" fill="white" stroke="black" stroke-width="1.5"/>
<path d="M431.412 323.521L418.131 325.507C417.044 325.67 416.976 327.211 418.045 327.469L428.359 329.953C428.488 329.984 428.622 329.989 428.753 329.968L444.987 327.333C446.12 327.149 446.101 325.512 444.964 325.355L431.697 323.52C431.602 323.507 431.506 323.507 431.412 323.521Z" fill="white" stroke="black" stroke-width="1.5"/>
<path d="M388.383 331.03L288.012 348.631C286.934 348.82 286.899 350.354 287.967 350.592L300.855 353.456C300.986 353.485 301.122 353.487 301.255 353.463L400.548 335.022C401.646 334.819 401.635 333.242 400.534 333.054L388.725 331.029C388.612 331.01 388.496 331.01 388.383 331.03Z" fill="white" stroke="black" stroke-width="1.5"/>
<path d="M414.388 327.024L393.552 330.111C392.432 330.277 392.406 331.882 393.519 332.084L403.891 333.97C403.999 333.99 404.11 333.991 404.219 333.975L424.709 330.882C425.823 330.714 425.852 329.118 424.744 328.91L414.719 327.031C414.61 327.01 414.498 327.008 414.388 327.024Z" fill="white" stroke="black" stroke-width="1.5"/>
<path d="M283.389 350.526L256.556 354.821C255.463 354.996 255.421 356.552 256.502 356.786L268.871 359.46C268.992 359.486 269.117 359.49 269.24 359.47L297.648 354.941C298.763 354.764 298.775 353.164 297.663 352.969L283.719 350.529C283.61 350.51 283.498 350.509 283.389 350.526Z" fill="white" stroke="black" stroke-width="1.5"/>
<path d="M252.373 356.527L231.092 359.739C230.007 359.903 229.939 361.442 231.005 361.7L242.369 364.455C242.491 364.485 242.618 364.491 242.743 364.473L265.492 361.281C266.598 361.125 266.656 359.549 265.564 359.313L252.733 356.539C252.615 356.513 252.493 356.509 252.373 356.527Z" fill="white" stroke="black" stroke-width="1.5"/>
<path d="M224.878 361.528L204.511 364.722C203.431 364.892 203.368 366.424 204.431 366.682L215.87 369.455C215.992 369.485 216.118 369.491 216.242 369.474L239.186 366.309C240.302 366.155 240.351 364.559 239.245 364.338L225.229 361.535C225.113 361.512 224.995 361.509 224.878 361.528Z" fill="white" stroke="black" stroke-width="1.5"/>
<path d="M199.402 366.019L176.699 368.909C175.629 369.045 175.503 370.545 176.535 370.858L188.332 374.432C188.478 374.477 188.633 374.487 188.784 374.462L213.307 370.442C214.416 370.26 214.428 368.67 213.322 368.471L199.705 366.027C199.605 366.009 199.503 366.006 199.402 366.019Z" fill="white" stroke="black" stroke-width="1.5"/>
</svg>
