<svg width="140" height="152" viewBox="0 0 140 152" fill="none" xmlns="http://www.w3.org/2000/svg">
<path d="M1.5 16C18 34.5 91 34 105 16M15 24C28.3513 14.9731 77.5 15.5 92 24M1 15.7881L1.00001 136.734C1.00002 144.346 33.9829 150.779 54.3104 150.994C75.5971 151.219 104.048 145.062 105.106 136.734C107.118 120.889 105.106 15.7881 105.106 15.7881C105.106 15.7881 96.5563 1.00009 51.7958 1C4.47784 0.9999 1 15.7881 1 15.7881ZM105.5 32.5C105.5 32.5 122.5 32.4999 132.5 39.5C142.5 46.5001 138.083 100.5 131 109C123.917 117.5 106 118.5 106 118.5V104.5C106 104.5 119.145 108.091 122 102C129.5 86 134.5 54 122 46.5001C118.165 44.1992 105.5 46 105.5 46V32.5Z" stroke="black" stroke-width="2"/>
</svg>
