<svg width="703" height="262" viewBox="0 0 703 262" fill="none" xmlns="http://www.w3.org/2000/svg">
<rect width="703" height="262" fill="black"/>
<ellipse cx="351.5" cy="131" rx="344.5" ry="117" fill="white"/>
<path d="M160.94 175V141.07H129.35V175H100.62V85.56H129.35V118.19H160.94V85.56H189.67V175H160.94ZM219.961 85.56H297.311V107.01H248.691V119.36H290.291V139.9H248.691V153.55H298.221V175H219.961V85.56ZM380.339 175H351.609V140.29L316.119 85.56H349.139L366.299 115.33H366.819L383.979 85.56H415.309L380.339 140.29V175ZM513.891 175V142.76C513.891 138.773 514.021 134.7 514.281 130.54C514.628 126.293 514.974 122.74 515.321 119.88C515.668 117.02 515.884 115.2 515.971 114.42H515.451L498.941 175H476.451L459.811 114.55H459.291C459.378 115.33 459.594 117.15 459.941 120.01C460.374 122.783 460.764 126.293 461.111 130.54C461.458 134.7 461.631 138.773 461.631 142.76V175H435.241V85.56H475.801L489.321 137.17H489.841L503.231 85.56H542.361V175H513.891ZM572.175 175V85.56H600.905V175H572.175Z" fill="black"/>
</svg>
