<svg width="166" height="166" viewBox="0 0 166 166" fill="none" xmlns="http://www.w3.org/2000/svg">
<circle cx="83" cy="83" r="82" stroke="black" stroke-width="2"/>
<mask id="path-2-inside-1" fill="white">
<path fill-rule="evenodd" clip-rule="evenodd" d="M82.5 154C121.988 154 154 121.988 154 82.5C154 43.0116 121.988 11 82.5 11C43.0116 11 11 43.0116 11 82.5C11 121.988 43.0116 154 82.5 154ZM19 54L52.5 145L62.5 149L84 87L105.5 148L117.5 142.5L142 72C142 72 145.853 58.2838 143.5 50C140.95 41.0213 132.5 30.5 126.5 31.5C116.202 33.2164 116 45 119.5 52C120.576 54.1525 121.635 55.8057 122.659 57.404C124.015 59.5215 125.309 61.5425 126.5 64.5C126.673 64.9284 126.84 65.3412 127.003 65.7415C128.693 69.8992 129.834 72.7071 130 77.5C130.104 80.5 129.626 85.2141 128.5 90C126.5 98.5 117 126 117 126L92 50C92 50 101 49 101.5 48.5C102.743 47.2574 102.257 44 100.5 44C98.9395 44 96.3306 44.1014 93.1483 44.2252C84.0945 44.5773 70.3992 45.1099 63 44C60.9202 43.688 59 46.5 60.5 48C62.4769 49.9769 69.5 49.5 69.5 49.5L80.5 80L65.5 125L39.5 49.5C39.5 49.5 44.7741 49.8065 48 49C52 48 49.4817 42.9161 47 43.5C38.5 45.5 24 44.5 24 44.5L19 54Z"/>
</mask>
<path d="M52.5 145L50.6231 145.691L50.9307 146.526L51.7572 146.857L52.5 145ZM19 54L17.2302 53.0685L16.8157 53.8559L17.1231 54.6909L19 54ZM62.5 149L61.7572 150.857L63.703 151.635L64.3896 149.655L62.5 149ZM84 87L85.8863 86.3352L83.9846 80.9399L82.1104 86.3448L84 87ZM105.5 148L103.614 148.665L104.342 150.731L106.333 149.818L105.5 148ZM117.5 142.5L118.333 144.318L119.109 143.963L119.389 143.157L117.5 142.5ZM142 72L143.889 72.6566L143.909 72.5993L143.925 72.5409L142 72ZM143.5 50L141.576 50.5465V50.5465L143.5 50ZM126.5 31.5L126.171 29.5272L126.5 31.5ZM119.5 52L117.711 52.8945L119.5 52ZM122.659 57.404L120.974 58.4826V58.4826L122.659 57.404ZM126.5 64.5L128.355 63.7529L128.355 63.7529L126.5 64.5ZM127.003 65.7415L128.856 64.9884L128.856 64.9884L127.003 65.7415ZM130 77.5L131.999 77.4309L130 77.5ZM128.5 90L130.447 90.4581H130.447L128.5 90ZM117 126L115.1 126.625L116.954 132.259L118.89 126.653L117 126ZM92 50L91.7791 48.0123L89.3302 48.2844L90.1002 50.625L92 50ZM101.5 48.5L100.086 47.0858L101.5 48.5ZM100.5 44L100.5 46L100.5 44ZM93.1483 44.2252L93.0705 42.2267L93.1483 44.2252ZM63 44L63.2967 42.0221L63 44ZM69.5 49.5L71.3814 48.8215L70.8696 47.4024L69.3645 47.5046L69.5 49.5ZM80.5 80L82.3974 80.6325L82.6168 79.9742L82.3814 79.3215L80.5 80ZM65.5 125L63.609 125.651L65.5308 131.232L67.3974 125.632L65.5 125ZM39.5 49.5L39.616 47.5034L36.6375 47.3303L37.609 50.1512L39.5 49.5ZM48 49L48.4851 50.9403H48.4851L48 49ZM47 43.5L46.5419 41.5532H46.5419L47 43.5ZM24 44.5L24.1376 42.5048L22.8372 42.4151L22.2302 43.5685L24 44.5ZM152 82.5C152 120.884 120.884 152 82.5 152V156C123.093 156 156 123.093 156 82.5H152ZM82.5 13C120.884 13 152 44.1162 152 82.5H156C156 41.9071 123.093 9 82.5 9V13ZM13 82.5C13 44.1162 44.1162 13 82.5 13V9C41.9071 9 9 41.9071 9 82.5H13ZM82.5 152C44.1162 152 13 120.884 13 82.5H9C9 123.093 41.9071 156 82.5 156V152ZM54.3769 144.309L20.8769 53.3091L17.1231 54.6909L50.6231 145.691L54.3769 144.309ZM63.2428 147.143L53.2428 143.143L51.7572 146.857L61.7572 150.857L63.2428 147.143ZM82.1104 86.3448L60.6104 148.345L64.3896 149.655L85.8896 87.6553L82.1104 86.3448ZM107.386 147.335L85.8863 86.3352L82.1137 87.6649L103.614 148.665L107.386 147.335ZM116.667 140.682L104.667 146.182L106.333 149.818L118.333 144.318L116.667 140.682ZM140.111 71.3435L115.611 141.844L119.389 143.157L143.889 72.6566L140.111 71.3435ZM141.576 50.5465C142.628 54.2497 142.318 59.3849 141.654 63.81C141.329 65.9799 140.932 67.9017 140.616 69.2806C140.458 69.9691 140.321 70.5198 140.224 70.8957C140.176 71.0836 140.137 71.2276 140.112 71.3231C140.099 71.3708 140.089 71.4064 140.083 71.4293C140.08 71.4408 140.077 71.449 140.076 71.454C140.075 71.4565 140.075 71.4582 140.075 71.4591C140.074 71.4595 140.074 71.4597 140.074 71.4597C140.074 71.4598 140.074 71.4596 140.074 71.4596C140.074 71.4594 140.075 71.4592 142 72C143.925 72.5409 143.926 72.5406 143.926 72.5402C143.926 72.54 143.926 72.5395 143.926 72.5391C143.926 72.5383 143.926 72.5373 143.927 72.536C143.928 72.5336 143.928 72.5303 143.93 72.5261C143.932 72.5179 143.935 72.5063 143.939 72.4916C143.947 72.462 143.959 72.4196 143.974 72.3649C144.003 72.2554 144.045 72.0966 144.098 71.8933C144.202 71.4867 144.348 70.9012 144.515 70.1743C144.848 68.7225 145.266 66.6975 145.61 64.4029C146.285 59.899 146.725 54.0342 145.424 49.4536L141.576 50.5465ZM126.829 33.4728C127.69 33.3293 128.857 33.5721 130.315 34.4299C131.753 35.276 133.291 36.6179 134.79 38.3267C137.794 41.7524 140.389 46.3684 141.576 50.5465L145.424 49.4536C144.06 44.653 141.156 39.519 137.797 35.6894C136.115 33.7705 134.257 32.1084 132.343 30.9824C130.449 29.8681 128.31 29.1707 126.171 29.5272L126.829 33.4728ZM121.289 51.1056C119.712 47.9528 118.992 43.7254 119.778 40.2041C120.165 38.4697 120.9 36.9742 122.005 35.8357C123.096 34.7117 124.64 33.8376 126.829 33.4728L126.171 29.5272C123.211 30.0206 120.868 31.2631 119.134 33.05C117.414 34.8224 116.387 37.0321 115.874 39.3332C114.859 43.8828 115.788 49.0472 117.711 52.8945L121.289 51.1056ZM124.343 56.3254C123.319 54.7269 122.313 53.1532 121.289 51.1056L117.711 52.8945C118.84 55.1518 119.951 56.8846 120.974 58.4826L124.343 56.3254ZM128.355 63.7529C127.088 60.6064 125.702 58.4487 124.343 56.3254L120.974 58.4826C122.327 60.5944 123.53 62.4787 124.645 65.2472L128.355 63.7529ZM128.856 64.9884C128.693 64.5877 128.526 64.1778 128.355 63.7529L124.645 65.2472C124.819 65.679 124.988 66.0947 125.15 66.4946L128.856 64.9884ZM131.999 77.4309C131.82 72.257 130.554 69.1659 128.856 64.9884L125.15 66.4946C126.832 70.6326 127.849 73.1571 128.001 77.5692L131.999 77.4309ZM130.447 90.4581C131.603 85.5443 132.11 80.6489 131.999 77.4309L128.001 77.5692C128.097 80.3511 127.649 84.8839 126.553 89.5419L130.447 90.4581ZM117 126C118.89 126.653 118.89 126.653 118.891 126.653C118.891 126.652 118.891 126.652 118.891 126.652C118.891 126.651 118.892 126.65 118.892 126.648C118.893 126.644 118.895 126.639 118.897 126.633C118.902 126.619 118.909 126.599 118.918 126.573C118.936 126.52 118.963 126.442 118.998 126.34C119.069 126.136 119.172 125.836 119.304 125.451C119.568 124.681 119.948 123.572 120.409 122.214C121.332 119.5 122.584 115.791 123.899 111.815C126.514 103.907 129.422 94.8129 130.447 90.4581L126.553 89.5419C125.578 93.6871 122.736 102.593 120.101 110.56C118.791 114.521 117.543 118.219 116.622 120.926C116.162 122.28 115.784 123.386 115.52 124.153C115.389 124.536 115.286 124.835 115.216 125.038C115.181 125.139 115.155 125.217 115.137 125.269C115.128 125.295 115.121 125.314 115.116 125.327C115.114 125.334 115.112 125.339 115.111 125.342C115.111 125.344 115.11 125.345 115.11 125.346C115.11 125.346 115.11 125.347 115.11 125.347C115.11 125.347 115.11 125.347 117 126ZM90.1002 50.625L115.1 126.625L118.9 125.375L93.8998 49.3751L90.1002 50.625ZM100.086 47.0858C100.278 46.8937 100.458 46.7991 100.503 46.7756C100.569 46.741 100.612 46.7253 100.613 46.7251C100.614 46.7247 100.568 46.7409 100.453 46.7704C100.229 46.8277 99.8914 46.8978 99.4514 46.9768C98.5804 47.1331 97.4426 47.3004 96.2947 47.4555C95.1523 47.6099 94.0227 47.7492 93.1772 47.85C92.7549 47.9004 92.4044 47.9411 92.1599 47.9691C92.0377 47.9831 91.942 47.994 91.8771 48.0013C91.8447 48.0049 91.8199 48.0077 91.8034 48.0096C91.7952 48.0105 91.789 48.0112 91.7849 48.0116C91.7829 48.0119 91.7813 48.012 91.7804 48.0121C91.7799 48.0122 91.7796 48.0122 91.7794 48.0122C91.7793 48.0123 91.7792 48.0123 91.7791 48.0123C91.7791 48.0123 91.7791 48.0123 92 50C92.2209 51.9878 92.2209 51.9878 92.2211 51.9878C92.2212 51.9878 92.2213 51.9878 92.2215 51.9877C92.2218 51.9877 92.2223 51.9876 92.2229 51.9876C92.2241 51.9874 92.2259 51.9872 92.2282 51.987C92.2327 51.9865 92.2395 51.9857 92.2483 51.9847C92.2658 51.9828 92.2917 51.9799 92.3253 51.9761C92.3925 51.9685 92.4906 51.9574 92.6155 51.9431C92.8651 51.9145 93.2217 51.8731 93.6509 51.8219C94.5085 51.7196 95.6602 51.5776 96.8303 51.4195C97.9949 51.2621 99.2008 51.0857 100.158 50.9139C100.632 50.8288 101.08 50.7387 101.444 50.6456C101.623 50.5999 101.821 50.5434 102.009 50.4734C102.095 50.4413 102.543 50.2856 102.914 49.9143L100.086 47.0858ZM100.5 46C100.4 46 100.288 45.9741 100.188 45.9233C100.096 45.8759 100.051 45.8262 100.042 45.8158C100.038 45.8111 100.113 45.9118 100.161 46.1601C100.206 46.3956 100.203 46.6501 100.159 46.8579C100.112 47.0767 100.049 47.1227 100.086 47.0858L102.914 49.9143C104.178 48.6502 104.345 46.7424 104.089 45.4079C103.951 44.6866 103.653 43.8953 103.103 43.241C102.522 42.5504 101.633 42 100.5 42L100.5 46ZM93.226 46.2237C96.4302 46.0991 98.9888 46 100.5 46L100.5 42C98.8902 42 96.231 42.1038 93.0705 42.2267L93.226 46.2237ZM62.7033 45.9779C70.3365 47.1228 84.2676 46.5721 93.226 46.2237L93.0705 42.2267C83.9214 42.5825 70.4619 43.0969 63.2967 42.0221L62.7033 45.9779ZM61.9142 46.5858C61.9139 46.5855 61.9197 46.5913 61.928 46.6039C61.9363 46.6165 61.9444 46.6318 61.9512 46.6488C61.9653 46.6846 61.9653 46.7073 61.9653 46.7051C61.9654 46.6879 61.9775 46.5754 62.0853 46.4092C62.1905 46.2471 62.3355 46.1158 62.4735 46.0411C62.604 45.9704 62.6784 45.9741 62.7033 45.9779L63.2967 42.0221C61.2649 41.7174 59.5759 42.9281 58.7299 44.2318C57.8788 45.5435 57.4237 47.7521 59.0858 49.4142L61.9142 46.5858ZM69.5 49.5C69.3645 47.5046 69.3648 47.5046 69.365 47.5046C69.3651 47.5046 69.3653 47.5045 69.3654 47.5045C69.3655 47.5045 69.3656 47.5045 69.3656 47.5045C69.3655 47.5045 69.365 47.5046 69.3641 47.5046C69.3624 47.5047 69.3589 47.505 69.3539 47.5053C69.3438 47.5059 69.3274 47.5069 69.3049 47.5082C69.2599 47.5108 69.1909 47.5146 69.1008 47.5188C68.9203 47.5273 68.6562 47.5375 68.3317 47.544C67.6792 47.5571 66.7982 47.5547 65.8688 47.4954C64.9288 47.4354 63.9976 47.3205 63.2237 47.1277C62.3873 46.9193 62.0152 46.6868 61.9142 46.5858L59.0858 49.4142C59.9732 50.3016 61.2203 50.7508 62.2568 51.0091C63.3557 51.2828 64.551 51.4194 65.6139 51.4873C66.6873 51.5558 67.6857 51.5578 68.4118 51.5432C68.7766 51.5359 69.0766 51.5243 69.288 51.5144C69.3937 51.5095 69.4775 51.5049 69.5364 51.5015C69.5658 51.4998 69.5891 51.4984 69.6057 51.4973C69.614 51.4968 69.6207 51.4964 69.6257 51.4961C69.6282 51.4959 69.6302 51.4958 69.6319 51.4956C69.6327 51.4956 69.6334 51.4955 69.634 51.4955C69.6343 51.4955 69.6347 51.4955 69.6348 51.4954C69.6352 51.4954 69.6355 51.4954 69.5 49.5ZM82.3814 79.3215L71.3814 48.8215L67.6186 50.1785L78.6186 80.6786L82.3814 79.3215ZM67.3974 125.632L82.3974 80.6325L78.6026 79.3676L63.6026 124.368L67.3974 125.632ZM37.609 50.1512L63.609 125.651L67.391 124.349L41.391 48.8488L37.609 50.1512ZM47.5149 47.0597C46.1384 47.4039 44.2073 47.5288 42.5122 47.5526C41.6868 47.5642 40.9567 47.5517 40.4337 47.5362C40.1726 47.5284 39.9645 47.52 39.8233 47.5136C39.7527 47.5105 39.6989 47.5078 39.6638 47.506C39.6462 47.505 39.6333 47.5043 39.6253 47.5039C39.6212 47.5037 39.6184 47.5035 39.6169 47.5034C39.6161 47.5034 39.6157 47.5034 39.6155 47.5033C39.6154 47.5033 39.6154 47.5033 39.6155 47.5033C39.6156 47.5034 39.6157 47.5034 39.6157 47.5034C39.6159 47.5034 39.616 47.5034 39.5 49.5C39.384 51.4966 39.3842 51.4967 39.3844 51.4967C39.3845 51.4967 39.3847 51.4967 39.385 51.4967C39.3854 51.4967 39.3858 51.4967 39.3864 51.4968C39.3875 51.4968 39.389 51.4969 39.3908 51.497C39.3943 51.4972 39.3991 51.4975 39.4052 51.4978C39.4173 51.4985 39.4344 51.4994 39.4563 51.5006C39.4999 51.5028 39.5626 51.506 39.6426 51.5096C39.8024 51.5168 40.0315 51.526 40.3153 51.5344C40.882 51.5512 41.672 51.5648 42.5684 51.5522C44.3168 51.5277 46.6357 51.4026 48.4851 50.9403L47.5149 47.0597ZM47.4581 45.4468C47.3237 45.4785 47.3371 45.3936 47.531 45.5457C47.7272 45.6997 47.9294 45.9759 48.0328 46.2869C48.1365 46.5991 48.0842 46.7562 48.0723 46.7815C48.0685 46.7895 48.0568 46.8152 48.0015 46.857C47.9405 46.903 47.7981 46.9889 47.5149 47.0597L48.4851 50.9403C49.9474 50.5747 51.0962 49.7434 51.6882 48.4918C52.2515 47.3008 52.1646 46.036 51.8285 45.0251C51.4921 44.0131 50.8495 43.0654 50.0005 42.3991C49.1492 41.731 47.9172 41.2296 46.5419 41.5532L47.4581 45.4468ZM24 44.5C23.8624 46.4953 23.8626 46.4953 23.8629 46.4953C23.8631 46.4953 23.8634 46.4953 23.8638 46.4954C23.8644 46.4954 23.8653 46.4955 23.8664 46.4955C23.8687 46.4957 23.8718 46.4959 23.8757 46.4962C23.8837 46.4967 23.8951 46.4975 23.9099 46.4985C23.9395 46.5004 23.9827 46.5032 24.0389 46.5068C24.1512 46.5139 24.3154 46.5239 24.5264 46.5359C24.9483 46.5598 25.5578 46.5916 26.3147 46.6233C27.8277 46.6866 29.9345 46.75 32.3125 46.75C37.0201 46.75 42.9676 46.5034 47.4581 45.4468L46.5419 41.5532C42.5324 42.4966 36.9799 42.75 32.3125 42.75C30.003 42.75 27.9536 42.6884 26.4821 42.6268C25.7469 42.596 25.1572 42.5652 24.7529 42.5423C24.5508 42.5308 24.3952 42.5213 24.2909 42.5147C24.2388 42.5114 24.1996 42.5089 24.1738 42.5072C24.1609 42.5063 24.1514 42.5057 24.1453 42.5053C24.1423 42.5051 24.1402 42.5049 24.1389 42.5048C24.1382 42.5048 24.1378 42.5048 24.1376 42.5047C24.1375 42.5047 24.1375 42.5047 24.1374 42.5047C24.1375 42.5047 24.1376 42.5048 24 44.5ZM20.7698 54.9315L25.7698 45.4315L22.2302 43.5685L17.2302 53.0685L20.7698 54.9315Z" fill="black" mask="url(#path-2-inside-1)"/>
</svg>
