<svg width="232" height="167" viewBox="0 0 232 167" fill="none" xmlns="http://www.w3.org/2000/svg">
<path d="M40.7933 114.521C40.7933 114.521 41.1203 114.566 41.7347 114.651M41.7347 114.651C50.8114 115.898 122.597 125.617 128.716 121.885C140.729 114.56 141.719 101.39 130.601 94.2187C127.471 92.1996 113.05 91.8013 113.05 91.8013M41.7347 114.651C42.943 112.736 42.4634 110.144 39.6907 106.046M41.7347 114.651C40.4437 116.696 37.226 117.968 32.8197 119.475M113.05 91.8013C113.05 91.8013 94.7808 89.868 73.3412 88.2133M113.05 91.8013C113.05 91.8013 94.3202 90.2672 73.3412 88.2133M73.3412 88.2133C59.379 87.1358 44.0724 86.1764 31.5915 85.9462C5.47945 85.4645 8.96786 128.846 26.2495 135.216C42.9046 141.355 86.6858 151.363 128.472 150.122L128.676 150.116C136.578 149.882 153.913 149.368 161.67 140.319C182.076 116.51 220.271 84.9032 220.346 61.3895C220.398 44.9664 213.858 28.9627 197.715 25.9439C165.595 19.9377 95.5233 17.3019 95.5233 17.3019C95.5233 17.3019 40.8485 48.7024 20.8803 63.8357C15.4249 67.9702 12.6029 79.5852 19.2333 81.2862C27.48 83.4019 51.6165 86.0864 73.3412 88.2133ZM138.675 90.0345C137.051 92.9715 134.904 94.0546 125.778 93.2793" stroke="black" stroke-width="2"/>
</svg>
